memory_initialization_radix=16;
memory_initialization_vector = 
4d546864,
00000006,
00000001,
01e04d54,
726b0000,
33a900c0,
0000c100,
00c20000,
c30000c4,
0000c500,
00c60000,
b0077f00,
b1077f00,
b2077f00,
b3077f00,
b4077f00,
b5077f00,
b6077f00,
b00a4000,
b10a4000,
b20a4000,
b30a4000,
b40a4000,
b50a4000,
b60a4000,
ff510305,
b8d800ff,
58040402,
18089e00,
91286400,
90476481,
70912800,
00912c64,
78904700,
00904664,
78912c00,
00912f64,
81709046,
0000912f,
00009134,
64009042,
64855090,
42000090,
3d648170,
903d0000,
903f6481,
70913400,
00903f00,
00912a64,
00904764,
8170912a,
0000912e,
64789047,
00009046,
6478912e,
00009131,
64817090,
46000091,
31000090,
42640091,
36648550,
90420000,
903d6481,
70903d00,
00903f64,
81709136,
0000903f,
00009047,
6400912c,
64817091,
2c000091,
2f647890,
47000090,
46647891,
2f000091,
33648170,
90460000,
91330000,
90426400,
91386485,
50904200,
00903d64,
8170903d,
0000903f,
64817091,
38000090,
3f000090,
49640091,
2a648170,
912a0000,
912e6478,
90490000,
90476478,
912e0000,
91316481,
70904700,
00913100,
00904664,
00913664,
81709046,
00009047,
64817090,
47000090,
46648170,
90460000,
90426481,
70904200,
00903d64,
8170903d,
00009136,
00009128,
6400903b,
64817091,
28000091,
2c647890,
3b000090,
3f647891,
2c000091,
2f648170,
912f0000,
903f0000,
90446400,
91346485,
50904400,
00904764,
83609047,
00009134,
00009046,
6400912a,
64817091,
2a000091,
2e647890,
46000090,
47647891,
2e000091,
31648170,
91310000,
90470000,
91366400,
90496481,
70904900,
00904764,
81709047,
00009046,
64817090,
46000090,
42648170,
90420000,
90466481,
70904600,
00913600,
00904764,
00912c64,
8170912c,
0000912f,
64789047,
00009046,
6478912f,
00009133,
64817091,
33000090,
46000091,
38640090,
42648170,
90420000,
903f6482,
68903f00,
00903d64,
8268903d,
0000903f,
64817090,
3f000091,
38000090,
47640091,
2c648170,
912c0000,
912f6478,
90470000,
90466478,
912f0000,
91336481,
70913300,
00904600,
00913864,
00904764,
81709047,
00009049,
64817090,
49000090,
47648170,
90470000,
90466481,
70904600,
00904264,
81709138,
00009042,
00009238,
6400923b,
64009047,
64009240,
64009128,
64817091,
28000091,
2c647890,
47000090,
46647891,
2c000091,
2f648170,
90460000,
912f0000,
91346400,
90426485,
50904200,
00903d64,
8170903d,
0000903f,
64817092,
3b000092,
40000092,
38000091,
34000090,
3f000091,
2a640090,
47640092,
3a640092,
42640092,
3d648170,
912a0000,
912e6478,
90470000,
90466478,
912e0000,
91316481,
70904600,
00913100,
00913664,
00904264,
85509042,
0000903d,
64817090,
3d000090,
3f648170,
923a0000,
923d0000,
91360000,
92420000,
903f0000,
912c6400,
923b6400,
923f6400,
92446400,
90476481,
70912c00,
00912f64,
78904700,
00904664,
78912f00,
00913364,
81709046,
00009133,
00009042,
64009138,
64855090,
42000090,
3d648170,
903d0000,
903f6481,
70913800,
00923f00,
00903f00,
00923b00,
00924400,
00912a64,
00924264,
00923a64,
00904964,
00923d64,
8170912a,
0000912e,
64789049,
00009047,
6478912e,
00009131,
64817091,
31000090,
47000090,
46640091,
36648170,
90460000,
90476481,
70904700,
00904664,
81709046,
00009042,
64817090,
42000090,
3d648170,
923a0000,
91360000,
923d0000,
903d0000,
92420000,
92386400,
923b6400,
92406400,
91286400,
903b6481,
70912800,
00912c64,
78903b00,
00903f64,
78912c00,
00912f64,
8170903f,
0000912f,
00009134,
64009044,
64855090,
44000090,
47648360,
90470000,
92380000,
92400000,
923b0000,
91340000,
90466400,
912a6400,
923d6400,
923a6400,
92426481,
70912a00,
00912e64,
78904600,
00904764,
78912e00,
00913164,
81709047,
00009131,
00009049,
64009136,
64817090,
49000090,
47648170,
90470000,
90466481,
70904600,
00904264,
81709042,
00009046,
64817091,
36000092,
3d000092,
3a000090,
46000092,
42000092,
44640092,
3f640092,
3b640091,
33640091,
2f640091,
38640091,
2c640090,
47648268,
90470000,
90466482,
68904600,
00904264,
81709042,
0000903f,
64826890,
3f000090,
3d648268,
903d0000,
903f6481,
70903f00,
00912c00,
00912c64,
00904464,
8360912c,
0000912c,
64836091,
2c000091,
2c648360,
912c0000,
90440000,
912c6481,
70912c00,
00912c64,
78912c00,
00912c64,
78912c00,
00923b00,
00913300,
00924400,
00923f00,
00912f00,
00913800,
00912f64,
00913864,
00912c64,
00913364,
00924464,
00923f64,
00923b64,
00935364,
78935300,
00935264,
78935200,
00934e64,
78934e00,
00934b64,
78913800,
00934b00,
00944b64,
00913864,
00935364,
78935300,
00944b00,
00935264,
78912c00,
00935200,
00944e64,
00934e64,
00912c64,
78934e00,
00944e00,
00934b64,
78934b00,
00935364,
78935300,
00935264,
78912c00,
00935200,
00944e64,
00934e64,
00912c64,
78934e00,
00944e00,
00934b64,
78913800,
00934b00,
00935364,
00913864,
00945064,
78945000,
00935300,
00935264,
78912c00,
00935200,
00944b64,
00912c64,
00934e64,
78944b00,
00934e00,
00934b64,
78913300,
00924400,
00923f00,
00923b00,
00912c00,
00934b00,
00913800,
00912f00,
00935364,
00912f64,
00912c64,
00924464,
00913864,
00923f64,
00913364,
00923b64,
78935300,
00935264,
78935200,
00912c00,
00912c64,
00934e64,
78934e00,
00934b64,
78913800,
00934b00,
00935364,
00913864,
78935300,
00935264,
78912c00,
00935200,
00934e64,
00944b64,
00912c64,
78944b00,
00934e00,
00934b64,
78934b00,
00935364,
78935300,
00935264,
78935200,
00912c00,
00934e64,
00912c64,
00944e64,
78944e00,
00934e00,
00934b64,
78934b00,
00913800,
00913864,
00935364,
00944e64,
78935300,
00944e00,
00935264,
78912c00,
00935200,
00945064,
00912c64,
00934e64,
78934e00,
00945000,
00934b64,
78912c00,
00913300,
00923b00,
00912f00,
00934b00,
00913800,
00924400,
00923f00,
00923b64,
00924064,
00913464,
00912f64,
00912864,
00912c64,
00923864,
00935364,
78935300,
00935264,
78935200,
00934e64,
78934e00,
00934b64,
78913400,
00934b00,
00944b64,
00913464,
00935364,
78935300,
00944b00,
00935264,
78912800,
00935200,
00912864,
00934e64,
78934e00,
00934b64,
78934b00,
00935364,
78935300,
00935264,
78935200,
00912800,
00934e64,
00912864,
00934e64,
78934e00,
00934e00,
00934b64,
78913400,
00934b00,
00913464,
00945064,
00935364,
78945000,
00935300,
00935264,
78912800,
00935200,
00912864,
00934e64,
00944b64,
78944b00,
00934e00,
00934b64,
78924000,
00912c00,
00913400,
00912800,
00912f00,
00934b00,
00923b00,
00923800,
00935364,
00924264,
00913164,
00913664,
00923d64,
00912a64,
00923a64,
00912e64,
78935300,
00935264,
78935200,
00912a00,
00954764,
00912a64,
00934e64,
78934e00,
00934b64,
78934b00,
00954700,
00913600,
00954664,
00935364,
00913664,
78935300,
00935264,
78954600,
00935200,
00912a00,
00912a64,
00934e64,
00954264,
78934e00,
00934b64,
78934b00,
00954200,
00953f64,
00935364,
78935300,
00935264,
78912a00,
00953f00,
00935200,
00934e64,
00912a64,
00953d64,
78934e00,
00934b64,
78953d00,
00934b00,
00913600,
00913664,
00953b64,
00935364,
78935300,
00935264,
78935200,
00912a00,
00953b00,
00934e64,
00953a64,
00912a64,
78934e00,
00912a00,
00912a64,
00934b64,
78923d00,
00924200,
00923a00,
00912e00,
00912a00,
00953a00,
00913100,
00913600,
00934b00,
00964964,
00935364,
00912f64,
00924464,
00913864,
00923f64,
00912c64,
00913364,
00923b64,
78935300,
00935264,
78935200,
00934e64,
78934e00,
00934b64,
78913800,
00934b00,
00944b64,
00913864,
00935364,
78935300,
00944b00,
00935264,
78964900,
00912c00,
00935200,
00934e64,
00912c64,
00944e64,
00964b64,
78944e00,
00934e00,
00934b64,
78934b00,
00935364,
78935300,
00935264,
78912c00,
00935200,
00934e64,
00944e64,
00912c64,
78944e00,
00934e00,
00934b64,
78934b00,
00913800,
00945064,
00913864,
00935364,
78945000,
00935300,
00935264,
78935200,
00912c00,
00912c64,
00944b64,
00934e64,
78934e00,
00944b00,
00934b64,
78912f00,
00934b00,
00913300,
00912c00,
00923b00,
00923f00,
00924400,
00913800,
00912c64,
00913364,
00912f64,
00923b64,
00924464,
00923f64,
00913864,
00935364,
78935300,
00935264,
78912c00,
00935200,
00912c64,
00934e64,
78934e00,
00934b64,
78934b00,
00913800,
00935364,
00913864,
78935300,
00935264,
78935200,
00912c00,
00934e64,
00912c64,
00944b64,
78944b00,
00934e00,
00934b64,
78934b00,
00935364,
78935300,
00935264,
78912c00,
00935200,
00912c64,
00934e64,
00944e64,
78934e00,
00944e00,
00934b64,
78913800,
00934b00,
00913864,
00935364,
00944e64,
78935300,
00944e00,
00935264,
78912c00,
00935200,
00934e64,
00945064,
00912c64,
78945000,
00934e00,
00934b64,
78912f00,
00923b00,
00912c00,
00924400,
00964b00,
00923f00,
00934b00,
00913800,
00913300,
00923864,
00924064,
00923b64,
00925364,
00912c64,
00935364,
00913464,
00912f64,
00912864,
78935300,
00935264,
78935200,
00934e64,
78934e00,
00934b64,
78934b00,
00913400,
00944b64,
00913464,
00935364,
78935300,
00944b00,
00935264,
78912800,
00935200,
00934e64,
00912864,
78934e00,
00934b64,
78934b00,
00935364,
78935300,
00935264,
78912800,
00935200,
00912864,
00934e64,
00934e64,
78934e00,
00934e00,
00934b64,
78934b00,
00913400,
00913464,
00935364,
00945064,
78945000,
00935300,
00935264,
78912800,
00935200,
00934e64,
00944b64,
00912864,
78944b00,
00934e00,
00934b64,
78923800,
00912c00,
00925300,
00923b00,
00913400,
00912800,
00934b00,
00912f00,
00924000,
00912e64,
00925264,
00913364,
00912764,
00923a64,
00923f64,
00923764,
00935364,
00912b64,
78935300,
00935264,
78913300,
00935200,
00912700,
00912764,
00913364,
00934e64,
00954764,
78934e00,
00934b64,
78934b00,
00913300,
00954700,
00935364,
00954664,
00913364,
78935300,
00935264,
78913300,
00954600,
00912700,
00935200,
00934e64,
00954264,
00912764,
00913364,
78934e00,
00934b64,
78934b00,
00913300,
00954200,
00913364,
00953f64,
00935364,
78935300,
00913300,
00935264,
00913364,
78913300,
00953f00,
00935200,
00912700,
00912764,
00913364,
00953d64,
00934e64,
78934e00,
00913300,
00913364,
00934b64,
78953d00,
00934b00,
00913300,
00913364,
00953b64,
00935364,
78913300,
00935300,
00935264,
00913364,
78913300,
00912700,
00953b00,
00935200,
00913364,
00934e64,
00953a64,
00912764,
78913300,
00934e00,
00912700,
00934b64,
00912764,
00913364,
78913300,
00912700,
00923700,
00934b00,
00953a00,
00925200,
00923f00,
00912e00,
00912b00,
00923a00,
00912f64,
00924464,
00923b64,
00913364,
00923f64,
00935364,
00904764,
00913864,
00912c64,
78935300,
00935264,
78935200,
00934e64,
78904700,
00934e00,
00904664,
00934b64,
78913800,
00934b00,
00944b64,
00935364,
00913864,
78944b00,
00935300,
00935264,
78904600,
00912c00,
00935200,
00904264,
00944e64,
00912c64,
00934e64,
78934e00,
00944e00,
00934b64,
78934b00,
00935364,
78935300,
00935264,
78912c00,
00935200,
00944e64,
00912c64,
00934e64,
78934e00,
00944e00,
00934b64,
78934b00,
00913800,
00904200,
00903d64,
00945064,
00935364,
00913864,
78945000,
00935300,
00935264,
78935200,
00903d00,
00912c00,
00912c64,
00934e64,
00903f64,
00944b64,
78944b00,
00934e00,
00934b64,
78903f00,
00913800,
00923f00,
00923b00,
00913300,
00924400,
00912f00,
00912c00,
00934b00,
00923b64,
00913364,
00923f64,
00912f64,
00913864,
00924464,
00935364,
00904764,
00912c64,
78935300,
00935264,
78935200,
00912c00,
00934e64,
00912c64,
78904700,
00934e00,
00904664,
00934b64,
78934b00,
00913800,
00935364,
00913864,
78935300,
00935264,
78935200,
00904600,
00912c00,
00944b64,
00904264,
00934e64,
00912c64,
78944b00,
00934e00,
00934b64,
78934b00,
00935364,
78935300,
00935264,
78912c00,
00935200,
00944e64,
00912c64,
00934e64,
78934e00,
00944e00,
00934b64,
78934b00,
00904200,
00913800,
00903d64,
00913864,
00935364,
00944e64,
78944e00,
00935300,
00935264,
78935200,
00903d00,
00912c00,
00912c64,
00934e64,
00903f64,
00945064,
78945000,
00934e00,
00934b64,
78903f00,
00924400,
00923f00,
00913800,
00923b00,
00912f00,
00913300,
00912c00,
00934b00,
00923864,
00924064,
00923b64,
00912c64,
00935364,
00912f64,
00904764,
00912864,
00913464,
78935300,
00935264,
78935200,
00934e64,
78904700,
00934e00,
00904664,
00934b64,
78913400,
00934b00,
00935364,
00913464,
00944b64,
78944b00,
00935300,
00935264,
78912800,
00904600,
00935200,
00912864,
00904264,
00934e64,
78934e00,
00934b64,
78934b00,
00935364,
78935300,
00935264,
78935200,
00912800,
00934e64,
00934e64,
00912864,
78934e00,
00934e00,
00934b64,
78934b00,
00904200,
00913400,
00913464,
00945064,
00935364,
00903d64,
78945000,
00935300,
00935264,
78935200,
00912800,
00903d00,
00944b64,
00934e64,
00912864,
00903f64,
78934e00,
00944b00,
00934b64,
78912c00,
00912f00,
00934b00,
00923b00,
00913400,
00923800,
00912800,
00903f00,
00924000,
00935364,
00904964,
00923a64,
00913664,
00924264,
00912e64,
00912a64,
00923d64,
00913164,
78935300,
00935264,
78935200,
00912a00,
00934e64,
00912a64,
00954764,
78934e00,
00904900,
00934b64,
00904764,
78913600,
00934b00,
00954700,
00935364,
00913664,
00954664,
78935300,
00935264,
78935200,
00954600,
00912a00,
00904700,
00954264,
00904664,
00934e64,
00912a64,
78934e00,
00934b64,
78954200,
00904600,
00934b00,
00953f64,
00935364,
00904764,
78935300,
00935264,
78912a00,
00935200,
00953f00,
00904700,
00912a64,
00953d64,
00904664,
00934e64,
78934e00,
00934b64,
78913600,
00904600,
00953d00,
00934b00,
00913664,
00904264,
00953b64,
00935364,
78935300,
00935264,
78912a00,
00935200,
00953b00,
00904200,
00903d64,
00912a64,
00934e64,
00953a64,
78934e00,
00912a00,
00912a64,
00934b64,
78913600,
00903d00,
00912a00,
00913100,
00923d00,
00934b00,
00912e00,
00924200,
00953a00,
00923a00,
00913864,
00912c64,
00923f64,
00964964,
00935364,
00923b64,
00913364,
00904764,
00912f64,
00924464,
78935300,
00935264,
78935200,
00934e64,
78904700,
00934e00,
00904664,
00934b64,
78913800,
00934b00,
00944b64,
00913864,
00935364,
78935300,
00944b00,
00935264,
78935200,
00904600,
00912c00,
00964900,
00964b64,
00944e64,
00904264,
00934e64,
00912c64,
78944e00,
00934e00,
00934b64,
78934b00,
00935364,
78935300,
00935264,
78912c00,
00935200,
00944e64,
00912c64,
00934e64,
78934e00,
00944e00,
00934b64,
78934b00,
00904200,
00913800,
00903d64,
00935364,
00913864,
00945064,
78945000,
00935300,
00935264,
78935200,
00912c00,
00903d00,
00944b64,
00934e64,
00903f64,
00912c64,
78944b00,
00934e00,
00934b64,
78923b00,
00924400,
00923f00,
00903f00,
00912f00,
00912c00,
00913300,
00913800,
00934b00,
00935364,
00913864,
00912f64,
00913364,
00923f64,
00904764,
00912c64,
00924464,
00923b64,
78935300,
00935264,
78912c00,
00935200,
00912c64,
00934e64,
78904700,
00934e00,
00934b64,
00904664,
78913800,
00934b00,
00913864,
00935364,
78935300,
00935264,
78904600,
00912c00,
00935200,
00912c64,
00934e64,
00904264,
00944b64,
78934e00,
00944b00,
00934b64,
78934b00,
00935364,
78935300,
00935264,
78912c00,
00935200,
00934e64,
00944e64,
00912c64,
78934e00,
00944e00,
00934b64,
78904200,
00913800,
00934b00,
00944e64,
00913864,
00935364,
00903d64,
78935300,
00944e00,
00935264,
78903d00,
00912c00,
00935200,
00945064,
00934e64,
00903f64,
00912c64,
78945000,
00934e00,
00934b64,
78903f00,
00934b00,
00913300,
00924400,
00912f00,
00964b00,
00923b00,
00913800,
00912c00,
00923f00,
00912f64,
00913464,
00912864,
00935364,
00904764,
00912c64,
00923864,
00924064,
00925364,
00923b64,
78935300,
00935264,
78935200,
00934e64,
78904700,
00934e00,
00934b64,
00904664,
78913400,
00934b00,
00944b64,
00913464,
00935364,
78935300,
00944b00,
00935264,
78912800,
00935200,
00904600,
00904264,
00934e64,
00912864,
78934e00,
00934b64,
78934b00,
00935364,
78935300,
00935264,
78912800,
00935200,
00912864,
00934e64,
00934e64,
78934e00,
00934e00,
00934b64,
78904200,
00913400,
00934b00,
00913464,
00935364,
00903d64,
00945064,
78945000,
00935300,
00935264,
78912800,
00903d00,
00935200,
00934e64,
00912864,
00903f64,
00944b64,
78944b00,
00934e00,
00934b64,
78912f00,
00934b00,
00913400,
00912800,
00912c00,
00923800,
00903f00,
00924000,
00925300,
00923b00,
00923f64,
00935364,
00923764,
00925264,
00923a64,
00912b64,
00913364,
00912e64,
00912764,
00904964,
78935300,
00935264,
78912700,
00913300,
00935200,
00912764,
00934e64,
00913364,
00954764,
78904900,
00934e00,
00934b64,
00904764,
78913300,
00934b00,
00954700,
00954664,
00935364,
00913364,
78935300,
00935264,
78954600,
00913300,
00935200,
00904700,
00912700,
00904664,
00913364,
00912764,
00934e64,
00954264,
78934e00,
00934b64,
78904600,
00913300,
00934b00,
00954200,
00935364,
00904764,
00953f64,
00913364,
78935300,
00913300,
00913364,
00935264,
78904700,
00912700,
00953f00,
00935200,
00913300,
00913364,
00912764,
00904664,
00934e64,
00953d64,
78934e00,
00913300,
00934b64,
00913364,
78934b00,
00904600,
00913300,
00953d00,
00935364,
00953b64,
00913364,
00904264,
78913300,
00935300,
00935264,
00913364,
78913300,
00953b00,
00935200,
00912700,
00904200,
00913364,
00903d64,
00912764,
00953a64,
00934e64,
78934e00,
00913300,
00912700,
00934b64,
00912764,
00913364,
78923700,
00912700,
00923f00,
00913300,
00925200,
00934b00,
00912e00,
00912b00,
00953a00,
00903d00,
00923a00,
00913364,
00912c64,
00923f64,
00923b64,
00924464,
00935364,
00904764,
00965364,
00912f64,
00913864,
78935300,
00935264,
78935200,
00934e64,
78904700,
00934e00,
00904664,
00934b64,
78912c00,
00934b00,
00913800,
00935364,
00912c64,
00913864,
78935300,
00935264,
78904600,
00935200,
00904264,
00934e64,
78934e00,
00934b64,
78912c00,
00934b00,
00912c64,
00935364,
78935300,
00935264,
78935200,
00934e64,
78934e00,
00934b64,
78934b00,
00913800,
00904200,
00912c00,
00935364,
00912c64,
00903d64,
00913864,
78935300,
00935264,
78903d00,
00935200,
00903f64,
00934e64,
78934e00,
00934b64,
78913300,
00912c00,
00923f00,
00903f00,
00923b00,
00912f00,
00924400,
00965300,
00913800,
00934b00,
00913864,
00924464,
00904764,
00912c64,
00913364,
00923b64,
00912f64,
00923f64,
00965264,
00935364,
78935300,
00935264,
78935200,
00934e64,
78904700,
00934e00,
00904664,
00934b64,
78913800,
00912c00,
00934b00,
00913864,
00935364,
00912c64,
78935300,
00935264,
78935200,
00904600,
00934e64,
00904264,
78934e00,
00934b64,
78912c00,
00934b00,
00965200,
00912c64,
00965364,
00935364,
78935300,
00935264,
78935200,
00934e64,
78934e00,
00934b64,
78912c00,
00904200,
00934b00,
00913800,
00913864,
00935364,
00912c64,
00903d64,
78935300,
00935264,
78912c00,
00903d00,
00935200,
00934e64,
00912c64,
00903f64,
78934e00,
00934b64,
78923b00,
00923f00,
00912f00,
00934b00,
00924400,
00903f00,
00913300,
00965300,
00912c00,
00913800,
00965a64,
00904764,
00935364,
00923b64,
00912c64,
00912f64,
00912864,
00923864,
00913464,
00924064,
78935300,
00935264,
78935200,
00934e64,
78904700,
00934e00,
00934b64,
00904664,
78912800,
00913400,
00934b00,
00935364,
00913464,
00912864,
78935300,
00935264,
78904600,
00935200,
00934e64,
00904264,
78934e00,
00934b64,
78934b00,
00912800,
00912864,
00935364,
78935300,
00935264,
78935200,
00934e64,
00934e64,
78934e00,
00934e00,
00934b64,
78913400,
00904200,
00934b00,
00912800,
00935364,
00912864,
00913464,
00903d64,
78935300,
00935264,
78935200,
00903d00,
00903f64,
00934e64,
78934e00,
00934b64,
78903f00,
00923800,
00965a00,
00923b00,
00913400,
00912800,
00912c00,
00912f00,
00924000,
00934b00,
00912a64,
00912e64,
00904964,
00913164,
00913664,
00965864,
00923d64,
00924264,
00923a64,
00935364,
78935300,
00935264,
78935200,
00934e64,
78904900,
00934e00,
00904764,
00934b64,
78912a00,
00913600,
00934b00,
00935364,
00913664,
00912a64,
78935300,
00935264,
78904700,
00935200,
00934e64,
00904664,
78934e00,
00934b64,
78904600,
00965800,
00912a00,
00934b00,
00965764,
00904764,
00935364,
00912a64,
78935300,
00935264,
78935200,
00904700,
00904664,
00934e64,
78934e00,
00934b64,
78913600,
00904600,
00912a00,
00934b00,
00935364,
00912a64,
00904264,
00913664,
78935300,
00935264,
78912a00,
00904200,
00935200,
00934e64,
00912a64,
00903d64,
78934e00,
00912a00,
00934b64,
00912a64,
78923a00,
00912a00,
00923d00,
00934b00,
00912e00,
00965700,
00913600,
00913100,
00903d00,
00924200,
00913864,
00912f64,
00924464,
00923f64,
00923b64,
00935364,
00965364,
00912c64,
00913364,
00904764,
78935300,
00935264,
78935200,
00934e64,
78934e00,
00904700,
00934b64,
00904664,
78912c00,
00934b00,
00913800,
00935364,
00913864,
00912c64,
78935300,
00935264,
78904600,
00935200,
00904264,
00934e64,
78934e00,
00934b64,
78912c00,
00934b00,
00935364,
00912c64,
78935300,
00935264,
78935200,
00934e64,
78934e00,
00934b64,
78934b00,
00904200,
00913800,
00912c00,
00903d64,
00913864,
00935364,
00912c64,
78935300,
00935264,
78903d00,
00935200,
00903f64,
00934e64,
78934e00,
00934b64,
78912c00,
00965300,
00923b00,
00923f00,
00912f00,
00934b00,
00924400,
00913300,
00903f00,
00913800,
00965264,
00935364,
00924464,
00923b64,
00904764,
00923f64,
00913864,
00912c64,
00912f64,
00913364,
78935300,
00935264,
78935200,
00934e64,
78904700,
00934e00,
00904664,
00934b64,
78913800,
00912c00,
00934b00,
00913864,
00912c64,
00935364,
78935300,
00935264,
78904600,
00935200,
00904264,
00934e64,
78934e00,
00934b64,
78912c00,
00934b00,
00935364,
00912c64,
78935300,
00935264,
78935200,
00934e64,
78934e00,
00934b64,
78934b00,
00912c00,
00913800,
00965200,
00904200,
00913864,
00935364,
00912c64,
00965364,
00903d64,
78935300,
00935264,
78935200,
00903d00,
00912c00,
00912c64,
00903f64,
00934e64,
78934e00,
00934b64,
78913800,
00924400,
00923b00,
00923f00,
00965300,
00903f00,
00912c00,
00912f00,
00913300,
00934b00,
00965764,
00904764,
00935364,
00924064,
00912c64,
00912864,
00923864,
00913464,
00923b64,
00912f64,
78935300,
00935264,
78935200,
00934e64,
78904700,
00934e00,
00934b64,
00904664,
78912800,
00913400,
00934b00,
00935364,
00913464,
00912864,
78935300,
00935264,
78965700,
00904600,
00935200,
00965864,
00904264,
00934e64,
78934e00,
00934b64,
78934b00,
00912800,
00935364,
00912864,
78935300,
00935264,
78935200,
00934e64,
00934e64,
78934e00,
00934e00,
00934b64,
78913400,
00912800,
00934b00,
00965800,
00904200,
00913464,
00935364,
00965764,
00912864,
00903d64,
78935300,
00935264,
78935200,
00903d00,
00934e64,
00903f64,
78934e00,
00934b64,
78903f00,
00923b00,
00924000,
00965700,
00912f00,
00934b00,
00913400,
00912800,
00923800,
00912c00,
00904964,
00965564,
00935364,
00923a64,
00912764,
00923f64,
00912b64,
00912e64,
00913364,
00923764,
78935300,
00935264,
78935200,
00934e64,
78904900,
00934e00,
00934b64,
00904764,
78912700,
00913300,
00934b00,
00965500,
00965264,
00913364,
00912764,
00935364,
78935300,
00935264,
78935200,
00904700,
00904664,
00934e64,
78934e00,
00934b64,
78934b00,
00912700,
00904600,
00904764,
00912764,
00935364,
78935300,
00935264,
78904700,
00935200,
00934e64,
00904664,
78934e00,
00934b64,
78904600,
00913300,
00934b00,
00912700,
00904264,
00935364,
00912764,
00913364,
78935300,
00935264,
78935200,
00904200,
00912700,
00903d64,
00912764,
00934e64,
78912700,
00934e00,
00912764,
00934b64,
78923700,
00923f00,
00934b00,
00923a00,
00912e00,
00965200,
00913300,
00903d00,
00912b00,
00912700,
00964b64,
00912c64,
00913864,
00912f64,
00913364,
00924464,
00923b64,
00904764,
00923f64,
00935364,
78935300,
00935264,
78935200,
00934e64,
78904700,
00934e00,
00904664,
00934b64,
78912c00,
00913800,
00934b00,
00912c64,
00913864,
00935364,
78935300,
00935264,
78904600,
00935200,
00904264,
00934e64,
78934e00,
00934b64,
78934b00,
00912c00,
00912c64,
00935364,
78935300,
00935264,
78935200,
00934e64,
78934e00,
00934b64,
78904200,
00934b00,
00913800,
00912c00,
00935364,
00903d64,
00913864,
00912c64,
78935300,
00935264,
78903d00,
00935200,
00934e64,
00903f64,
78934e00,
00934b64,
78924400,
00912c00,
00923b00,
00934b00,
00923f00,
00913300,
00913800,
00964b00,
00903f00,
00912f00,
00935364,
00904764,
00924464,
00965364,
00913364,
00923b64,
00913864,
00923f64,
00912f64,
00912c64,
78935300,
00935264,
78935200,
00934e64,
78904700,
00934e00,
00904664,
00934b64,
78913800,
00912c00,
00934b00,
00913864,
00912c64,
00935364,
78935300,
00935264,
78935200,
00904600,
00904264,
00934e64,
78934e00,
00934b64,
78965300,
00912c00,
00934b00,
00912c64,
00965264,
00935364,
78935300,
00935264,
78935200,
00934e64,
78934e00,
00934b64,
78904200,
00965200,
00912c00,
00913800,
00934b00,
00903d64,
00912c64,
00965364,
00913864,
00935364,
78935300,
00935264,
78903d00,
00912c00,
00935200,
00912c64,
00934e64,
00903f64,
78934e00,
00934b64,
78912f00,
00923b00,
00913300,
00903f00,
00913800,
00965300,
00924400,
00934b00,
00923f00,
00912c00,
00913464,
00912c64,
00904764,
00965764,
00912f64,
00924064,
00935364,
00912864,
00923b64,
00923864,
78935300,
00935264,
78935200,
00934e64,
78934e00,
00904700,
00934b64,
00904664,
78913400,
00912800,
00934b00,
00913464,
00912864,
00935364,
78935300,
00935264,
78904600,
00935200,
00904264,
00934e64,
78934e00,
00934b64,
78912800,
00934b00,
00935364,
00912864,
78935300,
00935264,
78935200,
00934e64,
00934e64,
78934e00,
00934e00,
00934b64,
78934b00,
00913400,
00904200,
00912800,
00935364,
00913464,
00912864,
00903d64,
78935300,
00935264,
78935200,
00903d00,
00934e64,
00903f64,
78934e00,
00934b64,
78923800,
00913400,
00934b00,
00912f00,
00965700,
00912c00,
00923b00,
00924000,
00912800,
00903f00,
00913164,
00912e64,
00912a64,
00913664,
00923a64,
00923d64,
00924264,
00935364,
00904964,
00965564,
78935300,
00935264,
78935200,
00934e64,
78934e00,
00904900,
00934b64,
00904764,
78912a00,
00934b00,
00913600,
00913664,
00912a64,
00935364,
78935300,
00935264,
78935200,
00904700,
00904664,
00934e64,
78934e00,
00934b64,
78934b00,
00912a00,
00904600,
00965500,
00904764,
00912a64,
00965364,
00935364,
78935300,
00935264,
78904700,
00935200,
00904664,
00934e64,
78934e00,
00934b64,
78912a00,
00904600,
00934b00,
00913600,
00904264,
00935364,
00913664,
00912a64,
78935300,
00935264,
78904200,
00912a00,
00935200,
00903d64,
00934e64,
00912a64,
78912a00,
00934e00,
00912a64,
00934b64,
78903d00,
00913100,
00923d00,
00912e00,
00913600,
00912a00,
00924200,
00923a00,
00934b00,
00965300,
00912f64,
00913864,
00913364,
00935364,
00923b64,
00923f64,
00912c64,
00904764,
00964e64,
00924464,
78935300,
00935264,
78935200,
00934e64,
78904700,
00934e00,
00904664,
00934b64,
78913800,
00912c00,
00934b00,
00912c64,
00935364,
00913864,
78935300,
00935264,
78935200,
00904600,
00904264,
00934e64,
78934e00,
00934b64,
78913800,
00912c00,
00934b00,
00912c64,
00913864,
00935364,
78935300,
00935264,
78935200,
00934e64,
78934e00,
00934b64,
78912c00,
00904200,
00913800,
00934b00,
00935364,
00912c64,
00913864,
00903d64,
78935300,
00935264,
78903d00,
00935200,
00934e64,
00903f64,
78934e00,
00934b64,
78934b00,
00912c00,
00964e00,
00923b00,
00923f00,
00924400,
00912f00,
00913300,
00903f00,
00913800,
00965364,
00904764,
00935364,
00912c64,
00924464,
00913864,
00923b64,
00913364,
00923f64,
00912f64,
78935300,
00935264,
78935200,
00934e64,
78904700,
00934e00,
00934b64,
00904664,
78913800,
00912c00,
00934b00,
00912c64,
00935364,
00913864,
78935300,
00935264,
78935200,
00904600,
00934e64,
00904264,
78934e00,
00934b64,
78913800,
00965300,
00912c00,
00934b00,
00965264,
00913864,
00935364,
00912c64,
78935300,
00935264,
78935200,
00934e64,
78934e00,
00934b64,
78912c00,
00965200,
00904200,
00913800,
00934b00,
00912c64,
00913864,
00965364,
00935364,
00903d64,
78935300,
00935264,
78903d00,
00935200,
00903f64,
00934e64,
78934e00,
00934b64,
78912c00,
00913800,
00965300,
00924400,
00903f00,
00923b00,
00913300,
00923f00,
00912f00,
00934b00,
00965a64,
00904764,
00935364,
00912f64,
00912864,
00923b64,
00913464,
00923864,
00912c64,
00924064,
78935300,
00935264,
78913400,
00935200,
00934e64,
00913464,
78934e00,
00904700,
00904664,
00934b64,
78934b00,
00913400,
00912800,
00913464,
00935364,
00912864,
78935300,
00935264,
78904600,
00913400,
00935200,
00934e64,
00904264,
00913464,
78934e00,
00934b64,
78913400,
00934b00,
00912800,
00913464,
00912864,
00935364,
78935300,
00935264,
78913400,
00935200,
00934e64,
00934e64,
00913464,
78934e00,
00934e00,
00934b64,
78904200,
00934b00,
00913400,
00912800,
00903d64,
00913464,
00935364,
00912864,
78935300,
00935264,
78913400,
00935200,
00903d00,
00913464,
00903f64,
00934e64,
78934e00,
00934b64,
78912c00,
00924000,
00912f00,
00923800,
00912800,
00923b00,
00913400,
00903f00,
00965a00,
00934b00,
00913364,
00904964,
00923f64,
00923a64,
00923764,
00935364,
00912b64,
00965f64,
00912764,
00912e64,
78935300,
00935264,
78913300,
00935200,
00934e64,
00913364,
78934e00,
00904900,
00904764,
00934b64,
78913300,
00934b00,
00912700,
00935364,
00912764,
00913364,
78935300,
00935264,
78935200,
00913300,
00904700,
00913364,
00934e64,
00904664,
78934e00,
00934b64,
78912700,
00904600,
00913300,
00934b00,
00935364,
00912764,
00913364,
00904764,
78935300,
00913300,
00935264,
00913364,
78913300,
00935200,
00904700,
00913364,
00904664,
00934e64,
78934e00,
00913300,
00934b64,
00913364,
78904600,
00912700,
00913300,
00934b00,
00913364,
00935364,
00904264,
00912764,
78935300,
00913300,
00935264,
00913364,
78935200,
00904200,
00913300,
00903d64,
00934e64,
00913364,
78934e00,
00913300,
00913364,
00934b64,
78934b00,
00912b00,
00912e00,
00923f00,
00923a00,
00903d00,
00923700,
00912700,
00913300,
00912864,
00903f64,
8170912c,
64817091,
2f648170,
903f0000,
91346400,
903d6478,
903d0000,
903f6478,
903f0000,
90446481,
70904400,
00903f64,
8170903f,
00009046,
64817090,
46000090,
47648170,
912c0000,
90470000,
91280000,
91340000,
965f0000,
912f0000,
90466400,
912a6481,
70912e64,
78904600,
00904764,
78913164,
81709047,
00009136,
64009046,
64789046,
00009047,
64789047,
00009049,
64789049,
00009047,
64789047,
00009046,
64789046,
00009044,
64789044,
0000903f,
6478903f,
00009044,
64789044,
00009046,
64789046,
00009047,
6478912e,
00009047,
0000912a,
00009136,
00009131,
0000912c,
6400904b,
64817091,
2f647890,
4b000090,
49647891,
33648170,
90490000,
91386400,
90476481,
70904700,
00904964,
81709049,
00009047,
64789047,
00009046,
64789046,
00009047,
64789047,
00009049,
64789049,
00009047,
64789047,
00009046,
64789138,
00009046,
00009133,
0000912c,
0000912f,
0000912a,
64009049,
64817091,
2e647890,
49000090,
47647891,
31648170,
90470000,
91366400,
90466478,
90460000,
90476478,
90470000,
90496481,
70904900,
00904664,
78904600,
00904764,
78904700,
00904964,
78904900,
00904764,
78904700,
00904664,
78904600,
00904264,
78912e00,
00912a00,
00904200,
00913100,
00913600,
00912864,
00903f64,
8170912c,
64817090,
3f000091,
2f640090,
3d648170,
903d0000,
91346400,
903f6481,
70903f00,
00904464,
81709044,
0000903f,
64817090,
3f000090,
46648170,
90460000,
90476481,
70912c00,
00904700,
00912f00,
00912800,
00913400,
00904964,
00912a64,
78904900,
00904764,
78904700,
00912e64,
00904664,
78904600,
00904464,
78904400,
00913164,
00904264,
78904200,
00904464,
78904400,
00904664,
00913664,
78904600,
00904764,
78904700,
00904964,
78904900,
00904764,
78904700,
00904664,
78904600,
00904764,
78904700,
00904964,
78904900,
00904b64,
78904b00,
00904e64,
78904e00,
00905364,
78905300,
00913600,
00913100,
00912e00,
00912a00,
00912c64,
00905264,
8170912f,
64817091,
33648170,
90520000,
90496400,
91386478,
90490000,
904b6478,
904b0000,
90526481,
70905200,
00905064,
81709050,
00009052,
64817090,
52000090,
53648170,
912f0000,
91380000,
90530000,
91330000,
912c0000,
912c6400,
904e6481,
70912f64,
81709133,
64817090,
4e000091,
38640090,
4b647890,
4b000090,
4c647890,
4c000090,
4e648170,
904e0000,
904c6481,
70904c00,
00904b64,
8170904b,
00009049,
64817091,
2c000091,
2f000091,
38000091,
33000090,
49000091,
28640090,
4b647890,
4b000090,
49647890,
49000091,
2c640090,
47647890,
47000090,
49647890,
49000091,
2f640090,
4b647890,
4b000090,
49647890,
49000090,
4b640091,
34647890,
4b000090,
4e647890,
4e000090,
4b647890,
4b000090,
4e647890,
4e000090,
52647890,
52000090,
53647890,
53000090,
4e647890,
4e000090,
52647890,
52000090,
53647890,
53000090,
55647890,
55000091,
28000091,
34000091,
2f000091,
2c000091,
2a640090,
57647890,
57000090,
55647890,
55000091,
2e640090,
53647890,
53000090,
52647890,
52000091,
31640090,
55647890,
55000090,
53647890,
53000091,
36640090,
52647890,
52000090,
53647890,
53000090,
52647890,
52000090,
53647890,
53000090,
55647890,
55000090,
53647890,
53000090,
52647890,
52000090,
53647890,
53000090,
52647890,
52000090,
4e647891,
2e000091,
31000090,
4e000091,
36000091,
2a000091,
2c640090,
4b647890,
4b000090,
49647890,
49000090,
4b640091,
2f647890,
4b000090,
4e647890,
4e000090,
4b640091,
33647890,
4b000090,
49647890,
49000090,
4b640091,
38647890,
4b000090,
52647890,
52000090,
4b647890,
4b000090,
4e647890,
4e000090,
52647890,
52000090,
53647890,
53000090,
55647890,
55000090,
53647890,
53000090,
52647890,
52000090,
53647891,
2f000091,
33000090,
53000091,
2c000091,
38000091,
2a640090,
55647890,
55000090,
53647890,
53000090,
52640091,
2e647890,
52000090,
4e647890,
4e000090,
52640091,
31647890,
52000090,
4e647890,
4e000090,
52640091,
36647890,
52000090,
53647890,
53000090,
55647890,
55000090,
53647890,
53000090,
52647890,
52000090,
53647890,
53000090,
55647890,
55000090,
57647890,
57000090,
58647890,
58000090,
57647891,
31000091,
36000091,
2e000091,
2a000090,
57000091,
28640090,
57647890,
57000090,
55647890,
55000091,
2c640090,
53647890,
53000090,
52647890,
52000091,
2f640090,
50647890,
50000090,
4e647890,
4e000090,
4c640091,
34647890,
4c000090,
4b647890,
4b000090,
49647890,
49000090,
47647890,
47000090,
46647890,
46000090,
44647890,
44000090,
42647890,
42000090,
40647890,
40000090,
3f647890,
3f000090,
3d647890,
3d000091,
34000091,
2c000091,
28000091,
2f000090,
3f640091,
2a647890,
3f000090,
40647890,
40000090,
42640091,
2e647890,
42000090,
44647890,
44000091,
31640090,
46647890,
46000090,
47647890,
47000091,
36640090,
49647890,
49000090,
4b647890,
4b000090,
4e647890,
4e000090,
50647890,
50000090,
52647890,
52000090,
53647890,
53000090,
55647890,
55000090,
53647890,
53000090,
52647890,
52000090,
4e647891,
36000091,
2a000091,
31000091,
2e000090,
4e000090,
53640091,
33640091,
38640091,
2f640091,
2c647890,
53000090,
52647890,
52000090,
50647890,
50000090,
52647890,
52000090,
53647890,
53000090,
52647890,
52000090,
53647890,
53000090,
55647890,
55000090,
57647890,
57000090,
55647890,
55000090,
57647890,
57000090,
58647890,
58000090,
5a647890,
5a000090,
53647890,
53000090,
57647890,
57000090,
5a647890,
5a000090,
5c648f00,
905c0000,
91330000,
912c0000,
912f0000,
91380000,
ff2f0000;