memory_initialization_radix=16;
memory_initialization_vector = 
4d546864,
00000006,
00000001,
03c04d54,
726b0000,
15e700ff,
0311d4ad,
c9f12dce,
d2c3c7d6,
d5bdabd6,
d8b7ea00,
ff510307,
a12000ff,
58040402,
180825b0,
407f9a7f,
40008102,
90394300,
5153035d,
4216805d,
40842990,
4048004c,
52844e3e,
42004a56,
84464f59,
05434184,
3d804c40,
0c904c52,
844e4857,
843a8039,
40005140,
12903943,
02515684,
3f804040,
004c400a,
904c5203,
40498432,
803e4000,
4a401990,
4a56033e,
44843780,
4f400043,
400d904f,
59024341,
840bb040,
7f28804c,
4019904c,
53843a80,
48401490,
48568449,
53540237,
4603b040,
00208040,
40004840,
03394000,
3e40004f,
40004340,
004c4041,
4a401451,
40835190,
4c530240,
4c84533e,
45004a57,
3a804c40,
32404083,
56904f5a,
02434383,
09805340,
8140904c,
55844e47,
56844480,
37400890,
53560237,
44810f80,
4a408140,
43408141,
4f40254c,
4012904c,
5402404d,
8442803e,
400a904a,
58023e45,
84474f5c,
0543456e,
b0407f83,
4c804c40,
0c904c54,
82758053,
40813e47,
401e9047,
588330b0,
40008119,
90515705,
35410045,
57023c45,
49804040,
004a4000,
3e400237,
40004c40,
03434002,
4f403047,
40834490,
404a004c,
5441b040,
7f840d90,
4a57033e,
4584464f,
5b034347,
842d804c,
401e904c,
54844948,
57844280,
51400035,
400c9051,
58033544,
8109b040,
00830140,
7f268040,
40004c40,
1990404a,
004c5384,
3a804a40,
003e4011,
904a5605,
3e47843d,
804f4000,
434000b0,
40000a90,
4f5a0243,
468148b0,
407f826d,
804c4014,
904c5483,
13804540,
003c4081,
2c48400d,
90485684,
46805140,
0035400a,
90354100,
51558435,
80404000,
4c400f90,
4c500340,
46844180,
4a40003e,
400d904a,
55023e43,
8433804f,
40114340,
0a904f58,
05434384,
33804c40,
0c904c52,
84514754,
82158048,
400d9048,
54821380,
3e400047,
40119053,
5308373f,
003e4100,
475614b0,
40002a80,
4a400348,
40023540,
00514000,
4040034f,
40024340,
004c4081,
78b0407f,
8206904c,
5403404d,
811d8053,
4083273e,
400a903e,
49004a57,
8136b040,
0062407f,
822e904f,
5c05434e,
843f804c,
40004040,
0a904056,
004c5682,
273c5182,
0e804740,
14903b53,
05475a82,
1b803740,
0a903752,
821f2d51,
03515e02,
214f0045,
5c1cb040,
000a803b,
40023e40,
004a4000,
43400047,
40034f40,
00404000,
4c40003c,
40023740,
8178b040,
7f820e40,
001b9034,
5200405e,
004c5c82,
77b0407f,
81559032,
57024a5a,
033e5684,
444f5b02,
37520843,
54842b80,
4040004c,
401b9040,
5b004c5a,
84473c54,
00485984,
32802d40,
00514000,
45401790,
2d4a0251,
5c03455b,
84378034,
40004040,
004c4019,
90345100,
405c004c,
5a843a80,
3240004a,
40003e40,
0d903254,
004a570a,
3e548428,
804f4000,
37400043,
401c9037,
51004f5b,
02435284,
35803440,
00404000,
4c401790,
3450004c,
5802405c,
84298048,
40113c40,
08903053,
023c5200,
4857830b,
80214081,
4390535a,
031f4f00,
2b4e0247,
5a2db040,
00178045,
40003240,
024a4000,
3e400040,
40003c40,
03344000,
4c400030,
40022d40,
00514003,
4f401e48,
40113740,
00434083,
3bb0407f,
0f903453,
004c5905,
405d8446,
3253004a,
58053e54,
810cb040,
00816940,
7f813e80,
47401490,
3751024f,
5b084354,
00474b84,
35804c40,
0040400c,
90405b00,
4c5c8435,
80474012,
903b5605,
475a8329,
801f4081,
13534000,
2b400047,
400d902b,
4b025359,
05475b41,
b040007d,
407f826d,
80344000,
4c401440,
400a9034,
52004059,
004c5784,
35803240,
004a4000,
3e401490,
3252004a,
57083e51,
8125b040,
00815440,
7f814180,
3740004f,
40004340,
0a90374e,
004f5907,
4350842e,
80344000,
4c401440,
40079034,
4b004c55,
03405784,
35803b40,
0047400a,
902f4800,
3b4e0547,
55843cb0,
40001290,
354c0048,
52005153,
19802b40,
00404002,
3240003e,
40035340,
024a4000,
3740004f,
40003440,
003b4000,
4740032f,
40204340,
124c4083,
74904053,
024c5184,
494a5403,
3e508131,
b0407f83,
1a904f5b,
03435282,
77804840,
81404c40,
0f904c52,
810a8051,
40834490,
48578438,
80354019,
90515702,
354d55b0,
40000380,
4f400543,
40024040,
033e4007,
4a40834f,
4c400c90,
4053004c,
5153b040,
7f837b90,
4a51033e,
4d84444f,
5805434d,
11b04000,
30804a40,
830bb040,
7f258051,
404e4c40,
0a904c4d,
84378048,
40149048,
4f26804f,
40841935,
40129035,
4502514f,
32b04000,
8379804c,
4019904c,
4a8333b0,
407f8119,
904a4c82,
6fb04000,
815f904f,
4e8421b0,
407f1480,
4c401151,
4000b040,
0005904c,
4a844c45,
4d2a8043,
40872c40,
408313b0,
407f9502,
804a4025,
90514d84,
3f804c40,
0d904c4b,
844b4a4e,
0f804f40,
843d904f,
4f825e80,
5140113e,
4081414c,
401b904c,
4b0d8048,
40004540,
84449045,
4b5ab040,
00824740,
7f885980,
35408b02,
90324600,
374b48b0,
4000813c,
804a401e,
90304100,
394c0580,
4540054f,
40004c40,
05324002,
37408178,
39400530,
4016902e,
40053a50,
821b802e,
40023a40,
0d902d3f,
003c5082,
01802d40,
0a3c4014,
901f4603,
3e520a3a,
4d921f39,
49023c50,
8442803a,
400c9037,
4a003a4f,
8261b040,
7f815480,
3e40003a,
4000b040,
0014903a,
4b033e51,
022b4588,
54803940,
8765b040,
7f4e4000,
811b803a,
400a903a,
4900434e,
840fb040,
7f840640,
007f9039,
49052649,
00414f0a,
324c3c80,
1f40002b,
40033c40,
003a4002,
3e400843,
40053740,
9025b040,
7f8a3e80,
26400f90,
3548003e,
4805263d,
00b04000,
4b804140,
4e324087,
68394000,
26400a90,
39470232,
4a08263f,
89124558,
07264100,
3c532b80,
32400235,
40003e40,
00264032,
39408822,
3c400545,
40002640,
0c903e57,
00465a03,
2444815c,
b0407f82,
65904556,
032b4307,
3c5337b0,
40008222,
407f8105,
40006190,
3341033a,
51024357,
84513744,
8231b040,
7f820b80,
33401790,
3348887e,
80454000,
3c401490,
455802b0,
40000390,
2642003c,
5414803a,
40003740,
00334002,
2b400043,
40034640,
073e4026,
2440837b,
902d4182,
52b0407f,
817a4000,
02903a52,
03435702,
3249844c,
b0407f89,
0f903951,
0041572b,
b0400082,
1f407f81,
7a803c40,
003a4000,
43400a90,
2743003a,
52004355,
033f550c,
b040000d,
80394007,
2d400032,
40004140,
0d454005,
26408347,
b0407f4d,
902e4484,
53334814,
b0400084,
35903746,
8438803a,
401b903a,
4a8632b0,
407f813e,
40008120,
90394d02,
42560326,
4739803f,
40003340,
05434005,
2e400037,
40082740,
1e3a4083,
58902d49,
8451324c,
003a5200,
4356814a,
80394083,
0490364f,
84464554,
03394d00,
3c538213,
b0407f86,
72804340,
0d902b4b,
02465605,
3e550043,
532d8042,
40003940,
03324000,
3a400036,
40004540,
003c4002,
b0400008,
80264002,
2d40820c,
b0407f81,
6640001e,
90325584,
4b374e84,
493a5153,
b0407f83,
7b90394e,
00455203,
3c528122,
b0400081,
55407f81,
3e804340,
00374000,
3a400c90,
3a510343,
53023750,
3cb04000,
8155407f,
821f802b,
40004640,
123e4000,
43400037,
4007902b,
4c034657,
02375100,
3e540343,
5019b040,
00841980,
32401c90,
3255823d,
803c403a,
39408107,
45403937,
400d9037,
4f8134b0,
407f827e,
803a4019,
903a5284,
3a804640,
0043400f,
90395200,
4a570343,
55024657,
842e803a,
401b903a,
52843880,
4a401190,
26520845,
59004a58,
004d5714,
b040000c,
80374005,
3e40003a,
40032b40,
00394002,
43400046,
40303240,
836c902d,
4e8134b0,
407f831f,
90325681,
19b04000,
832e9035,
558360b0,
407f6b90,
3950004c,
53843580,
4a401790,
4a5a843c,
80264000,
45401990,
264f0045,
59033e54,
00415981,
3bb04000,
8116802d,
40816e90,
2d4c8218,
b0407f82,
22803240,
11b04000,
0a90324a,
0a803540,
843f9035,
4e842e80,
39401b90,
39478252,
b0407f86,
13804d40,
2bb04000,
05904348,
1e803e40,
02414003,
4c40004a,
40002d40,
00394002,
45400326,
401b3240,
00354084,
0b903e4a,
844b4b39,
033f4b84,
41804340,
0f90434c,
841c804b,
40143e40,
14903e4a,
812d803f,
40832190,
3f4c004b,
3a844942,
4f843d80,
3e400f90,
3e4a8109,
804b4083,
3b3f400a,
903f4c00,
4b3b8435,
80424014,
90424d84,
3f803e40,
0f903e49,
19804340,
81044b40,
83153f40,
19904b3c,
033f4c84,
46434e0f,
8042400d,
3f40204b,
40143e40,
8401903e,
4b84494b,
3c023f4d,
843a8043,
400d9043,
4e843580,
3e401b90,
3e4b1e80,
4b401e3f,
40840d90,
4b3b033f,
4d844942,
4e843580,
3e401990,
3e498161,
804b4082,
593f4011,
903f4a00,
4b3a8430,
8042401c,
90424e84,
37803e40,
14903e49,
843f803f,
40004b40,
0d903f4d,
004b3c66,
b0407f83,
60804340,
0a903046,
00434b05,
243c03b0,
40003780,
3f400742,
40233e40,
81414b40,
821d903e,
4b8143b0,
407f830d,
903f4b00,
484e8114,
4b4b810c,
4f4f8113,
524d8100,
80434019,
90434c00,
544c843a,
803e400f,
903e4b81,
1db04000,
8313803f,
40004b40,
1b903f4e,
004b3d84,
49425084,
30805240,
003e4000,
b0407f1c,
903e4d00,
52527d80,
54401690,
544b8105,
8052400f,
90524c81,
16514d7a,
804f4000,
3f401490,
3f48004f,
4e810580,
4b400f90,
4b4b8113,
4a4d8100,
80484014,
90484c81,
04804240,
0d90464d,
07424981,
0f454d83,
1c803e40,
1e903e4a,
814b8030,
40002440,
826a3f40,
14903f4a,
84428043,
400a902e,
4b022244,
03434825,
80514000,
4f400352,
40004240,
02544003,
4b40004a,
40004840,
00454000,
3e40003f,
40024640,
00b04000,
8415407f,
05903e50,
84493f50,
05464b81,
184a4981,
074f4c81,
11524a7b,
80434019,
90564d05,
43518111,
574e8111,
5b4c810e,
5d498105,
803e4014,
903e4f81,
1bb04000,
8152407f,
8154803f,
400d903f,
51004b3e,
844b4254,
843a805b,
40003e40,
14905b4f,
033e4f70,
805d4017,
905d4881,
02805b40,
1b905b4b,
1e804f40,
6257400f,
90574e81,
09805640,
003f400d,
903f4d02,
564c7880,
52401490,
52478111,
514b8114,
4f4a8102,
804b4000,
42400c90,
4b470342,
4f810980,
4a400d90,
4a4a810c,
8046400a,
90464a81,
13454981,
05803e40,
0f903e50,
8430803f,
401b903f,
52843880,
4340004a,
4011904a,
54028022,
4001902d,
44022144,
00434f0f,
b040001c,
80564000,
52400257,
40005140,
004f4000,
4b400046,
40035d40,
00454002,
3e40052e,
40084240,
0a5b403c,
3f408344,
903e4e84,
4c4b3e02,
3f520d80,
4b408140,
4a405f3e,
40820e43,
400d9043,
5284503e,
4d8309b0,
407f812c,
803f4012,
904b3d05,
3f50843c,
804b400d,
904b5902,
424d8433,
803e401b,
903e4c84,
10804340,
283f4000,
4b401190,
4b3e033f,
4d842b80,
42401e90,
42528435,
803e4016,
903e4d84,
3d804b40,
003f400c,
904b3c03,
3f508444,
80424005,
904e5e07,
1f430042,
59032b46,
20b04000,
2b802140,
024b4005,
3f40122d,
40003e40,
833ab040,
7f28903e,
4e084a3d,
0a804a40,
8437903f,
50004b3d,
55802b40,
17902b28,
83498042,
40199042,
5221804e,
4084191f,
40003e40,
0f903e50,
034a3f02,
1f2f3a80,
1f400a90,
1f28824f,
801f400c,
901f1781,
0f803f40,
004b4000,
2b400f90,
2b2e074b,
40033f52,
8206801f,
4019901f,
23821b80,
4a40002b,
400c9051,
5d054a5d,
052b3803,
455b8172,
801f400d,
901f2381,
34802b40,
0a902b33,
7d803e40,
0c903e4c,
8213801f,
4012901f,
32820e80,
4b40003f,
40002b40,
001f400c,
902b3703,
4b42071f,
32003f4d,
8209801f,
401e901f,
387d802b,
4012902b,
3c75802b,
40124240,
02902b40,
0f424e76,
802b400a,
902b4081,
11801f40,
0a901f37,
7a802b40,
17902b42,
8104801f,
400d901f,
3f05803e,
400a903e,
4969802b,
4016902b,
44810580,
1f401b90,
1f3f7d80,
2b400d90,
2b447a80,
1f400d90,
1f400780,
3f400f90,
3f4d7880,
2b400a90,
2b45810f,
801f400a,
901f437d,
802b4016,
902b4681,
02803e40,
003f4014,
1f40002b,
4000903f,
51053e4d,
051f4a05,
2b4d003a,
4b0d434d,
5c804540,
034a4002,
514019b0,
40000380,
4b408d53,
b0407f9c,
1a803f40,
89154240,
003e4000,
1f40002b,
40003a40,
00434082,
56b04000,
c82a407f,
8a5c903a,
4e034651,
34b04000,
8239903b,
4f054742,
8107b040,
7f817590,
384c4180,
3a408231,
46400c90,
4b57033a,
50003f55,
07464882,
7f364e82,
6a803840,
12903849,
83063552,
004d5d02,
415c827c,
3250827f,
2e4b8259,
803b4014,
46401190,
4e5f0527,
5203465a,
02425f30,
b040000c,
803a4000,
3f400038,
40003540,
00414000,
2e40034b,
40003640,
004d4000,
32400547,
408245b0,
407f8131,
902e4984,
3f334d84,
2b804e40,
12424005,
904e5f05,
35510742,
58843541,
5f004d60,
03364e84,
26803540,
1990354c,
003f5b00,
4b578426,
80274000,
4640004e,
40004240,
0f904e5f,
05274a07,
425b0046,
5c812ab0,
40000580,
33400036,
40034140,
004d4002,
3f403cb0,
407f817a,
8035403a,
2e401690,
2e4c8417,
804b402b,
90334b81,
2ab04000,
83179035,
4e8207b0,
407f8222,
8046400f,
90495d05,
364f0052,
5b05465c,
8139b040,
00815240,
7f811b80,
35401990,
354e8426,
802e4000,
46401690,
415c0346,
5c004d5b,
022e5808,
225039b0,
40001e80,
52400327,
40003640,
02334003,
49400035,
40194e40,
00424083,
38b0407f,
0290354e,
843a3a4c,
21b04000,
815e407f,
82348041,
40004d40,
19903d56,
00415d02,
4d5f8433,
4b58053c,
52023f58,
67b04000,
55407f82,
6d803a40,
003d4014,
90495c02,
3d5a053a,
4f842680,
4640002e,
40004140,
004d4014,
902e5403,
4d5e0241,
5e00465b,
8120b040,
000d8035,
40023c40,
034b4055,
b0407f73,
80494081,
2cb04000,
1790354f,
8177b040,
7f823480,
3a400f90,
3a4a3cb0,
40007380,
3d40812c,
3f403ab0,
407f812c,
903d4e05,
49428406,
802e4002,
b040000f,
80464000,
49400a90,
3c4d0049,
5a035257,
02465a3c,
80224082,
0eb0407f,
8166803d,
4017903d,
4f84412f,
51003f57,
03425800,
4b5c0223,
4c0a8023,
4008b040,
00009047,
450a8047,
40465240,
14464002,
3c40003d,
40054940,
034d4000,
4140113a,
40123540,
820eb040,
7f810490,
4d5d032a,
4c02415c,
00445c84,
29802f40,
0042400f,
902f5202,
4e5e0842,
5902465b,
58b04000,
8247407f,
811b9033,
4e844436,
4c84383b,
4f843080,
4d400041,
40004440,
16904d5d,
03255400,
415b0044,
5f0cb040,
00218036,
40003b40,
024e4000,
46400033,
40032f40,
02424012,
3f40284b,
40112a40,
8166b040,
7f815790,
4e5d052c,
4903425a,
00465d83,
60b04000,
55804440,
0590505e,
02315203,
495b0244,
5d843d35,
4e7db040,
7f833890,
38498446,
3d4f8429,
804e4000,
46400049,
400f904e,
5b07495c,
00525905,
1e52002a,
4d00465b,
0a802540,
00314003,
3840003d,
40024440,
00b04000,
03802c40,
00424000,
50400235,
400a4140,
284d4082,
6db0407f,
81079031,
4e844436,
4b6eb040,
00815240,
7f817d90,
3849843f,
505e024d,
5c033a4e,
00445c84,
26804e40,
00384011,
904e5e03,
42560238,
4e004b5c,
842b804d,
4014904d,
62052e55,
004a5e03,
224e0041,
5f14b040,
00028031,
40055240,
00504003,
4440023a,
40004e40,
00424000,
4b400336,
40003840,
0c464028,
4940122a,
40251e40,
832c9032,
4e844135,
4a843838,
4684463e,
46004651,
8150b040,
7f871a80,
46401990,
4652033f,
3f024241,
17b04000,
0c804140,
032e4000,
3240003e,
40024a40,
00354000,
38400822,
40254d40,
1c904b4b,
7d4e5290,
024d4f83,
2b804b40,
8119904b,
4f842d80,
4e401290,
4e538469,
b0407f8d,
15905251,
81468046,
40003f40,
00424000,
4d40873b,
90493f00,
4d4f0a46,
405a8052,
401b9052,
5123804e,
40054b40,
03b04000,
52905554,
8915b040,
7f866d90,
54528433,
8052400c,
90525484,
33804d40,
11904d53,
76b04000,
864d8055,
4073b040,
7f862780,
54408313,
49400f90,
49548131,
b0400081,
52407f85,
7d904b52,
033b3f05,
3842003f,
4600424c,
2d804d40,
02524003,
464037b0,
40000580,
4940833a,
b0407f0d,
904d5302,
4452843f,
4654004e,
552db040,
00847940,
7f8c4c80,
4d400044,
400d904d,
52023a3d,
03445102,
3d450341,
4250b040,
0005803b,
40023840,
034b4000,
3f400042,
40004640,
004e4085,
37b0407f,
82598041,
400f904b,
53024143,
3cb04000,
8d019049,
562b803d,
401b903d,
20836a80,
3a400044,
40004b40,
12903f48,
00444a00,
4b54023a,
405d8041,
40003d40,
024d4003,
49409a0c,
44400f90,
443c8849,
b0407f92,
27803a40,
0f903a36,
64803f40,
1b903f35,
81004233,
7f463b67,
804b4016,
904b3a81,
024e3f14,
b040006c,
9052401b,
80444089,
3ab0407f,
a6458046,
40025240,
083f4005,
3a400042,
40024b40,
811e4e40,
8546b040,
0000ff2f,
00000000;