memory_initialization_radix=16;
memory_initialization_vector = 
4d546864,
00000006,
00000001,
00784d54,
726b0000,
0d7d00ff,
51030927,
c000ff58,
04040278,
0800c000,
00c10000,
c20000c3,
0000ff03,
06506961,
6e6f5200,
b00a0e00,
b10a0e00,
b20a0e00,
b30a0e00,
ff5902fe,
0000904a,
5500c400,
00c50000,
c60000c7,
0000b70a,
7200b60a,
7200b50a,
7200b40a,
7200ff03,
06506961,
6e6f4c00,
ff5902fe,
00009433,
5500943a,
5578804a,
553c9048,
553c8048,
5500904a,
553c804a,
5500904f,
553c804f,
55009051,
553c8051,
55009052,
553c8052,
55009051,
55788051,
553c9052,
553c8052,
55009051,
553c8051,
5500904d,
553c804d,
5500904a,
553c804a,
55009048,
553c8048,
5500843a,
55008433,
5500904a,
55009432,
55009436,
5500943c,
5578804a,
553c9048,
553c8048,
5500904a,
5500843c,
55008436,
55008432,
55009436,
5500943c,
553c804a,
5500904f,
553c804f,
5500904d,
553c804d,
5500904a,
553c804a,
5500843c,
55008436,
55009046,
55009437,
5500943e,
55788046,
55789043,
5500843e,
55008437,
5500942b,
55009432,
553c8043,
55009045,
553c8045,
55009046,
553c8046,
55009048,
553c8048,
5500904a,
55008432,
5500842b,
55009433,
5500943a,
5578804a,
553c9048,
553c8048,
5500904a,
553c804a,
553c904f,
553c804f,
5500904e,
553c804e,
5500843a,
55008433,
55009432,
55009436,
5500943c,
553c904f,
553c804f,
553c9051,
553c8051,
5500843c,
55008436,
55008432,
55009436,
55009439,
5500943e,
553c904a,
553c804a,
55009048,
553c8048,
55009046,
553c8046,
5500843e,
55008439,
55008436,
55009048,
55009437,
5500943a,
5500943e,
553c8048,
55009048,
553c8048,
55009046,
553c8046,
55009048,
553c8048,
553c904d,
553c804d,
5500904b,
553c804b,
5500904b,
553c843e,
5500843a,
55008437,
55009438,
5500943e,
553c804b,
5500904a,
553c804a,
5500904a,
5578804a,
5500843e,
55008438,
5500942e,
55009435,
55789046,
553c8046,
55009048,
553c8048,
55008435,
5500842e,
55009043,
5500904a,
55009427,
555a8427,
55009433,
551e804a,
55008043,
55008433,
55009427,
553c9048,
55008427,
55009433,
553c8048,
5500904a,
55008433,
55009427,
553c804a,
5500904f,
55008427,
55009433,
553c804f,
55009051,
55008433,
55009427,
553c8051,
55009052,
55008427,
55009433,
553c8052,
55008433,
5500904d,
55009051,
55009429,
555a8429,
55009435,
551e8051,
5500804d,
55008435,
55009429,
553c9052,
55008429,
55009435,
553c8052,
55009051,
55008435,
55009427,
553c8051,
5500904d,
55008427,
55009433,
553c804d,
55009048,
55008433,
55009427,
553c8048,
55009049,
55008427,
55009433,
553c8049,
55008433,
55009045,
5500904a,
55009426,
555a8426,
55009432,
551e804a,
55008045,
55008432,
55009426,
553c9048,
55008426,
55009432,
553c8048,
55009045,
5500904a,
55008432,
5500942a,
553c804a,
55008045,
5500904f,
5500842a,
55009436,
553c804f,
5500904d,
55008436,
5500942a,
553c804d,
5500904a,
5500842a,
55009436,
553c804a,
55008436,
55009043,
55009046,
5500942b,
555a842b,
55009437,
551e8046,
55008043,
55008437,
5500942b,
553c9048,
5500842b,
55009437,
553c8048,
55009046,
5500904a,
55008437,
5500942e,
553c804a,
55008046,
55009046,
5500904a,
5500842e,
5500943a,
553c804a,
55008046,
55009048,
5500843a,
5500942e,
553c8048,
55009046,
5500842e,
5500943a,
553c8046,
5500843a,
55009043,
55009046,
55009427,
555a8427,
55009433,
551e8046,
55008043,
55008433,
55009427,
553c9048,
55008427,
55009433,
553c8048,
55009043,
5500904a,
55008433,
55009427,
553c804a,
55008043,
55009043,
5500904a,
55008427,
55009433,
553c804a,
55008043,
55009048,
55008433,
55009427,
553c8048,
55009046,
55008427,
55009433,
553c8046,
55008433,
55009041,
55009046,
55009429,
555a8429,
55009435,
551e8046,
55008041,
55008435,
55009429,
553c9041,
55008429,
55009435,
553c8041,
55009043,
55008435,
55009429,
553c8043,
55009046,
55008429,
55009435,
553c8046,
55009046,
55008435,
55009429,
55788046,
55008429,
5500904f,
48009433,
55009437,
5500943a,
553c804f,
48009052,
48788052,
4800904f,
483c804f,
48009052,
48788052,
48009052,
483c8052,
48009054,
483c8054,
4800843a,
55008437,
55008433,
55009056,
48009433,
55009437,
5500943a,
553c8056,
48009057,
483c8057,
48009056,
48788056,
48009052,
483c8052,
48009054,
483c8054,
48009056,
483c8056,
48009057,
483c8057,
4800843a,
55008437,
55008433,
55009056,
4800942e,
55009432,
55009435,
553c8056,
481e9052,
483c8052,
481e9052,
483c8052,
483c9054,
483c8054,
48009056,
483c8056,
48009057,
483c8057,
48008435,
55008432,
5500842e,
55009056,
4800942e,
55009432,
55009435,
553c8056,
481e9052,
483c8052,
481e9052,
483c8052,
483c9054,
483c8054,
48009052,
48788052,
48008435,
55008432,
5500842e,
5500904f,
48009433,
55009437,
5500943a,
553c804f,
48009052,
48788052,
4800904f,
483c804f,
48009052,
48788052,
48009052,
483c8052,
48009054,
483c8054,
4800843a,
55008437,
55008433,
55009056,
48009435,
55009439,
5500943c,
553c8056,
48009057,
483c8057,
48009056,
48788056,
48009052,
4800843c,
55008439,
55008435,
55009429,
55009430,
553c8052,
48009054,
483c8054,
48009056,
483c8056,
48009057,
483c8057,
48009059,
48008430,
55008429,
5500942e,
55009432,
55009435,
553c8059,
481e9054,
483c8054,
481e9052,
483c8052,
483c9054,
483c8054,
48009052,
48788052,
48008435,
55008432,
5500842e,
5500903e,
48009042,
48009048,
48009432,
55817080,
48480080,
42480080,
3e480090,
4a480090,
56488170,
80564800,
804a4800,
84325500,
904b5000,
9052503c,
80525000,
804b5000,
904f503c,
804f5000,
9051503c,
80515000,
90525000,
9427553c,
8052503c,
904f503c,
804f5000,
90515000,
84275500,
942e553c,
80515000,
90525000,
842e5500,
9433553c,
80525000,
84335500,
9429553c,
9051503c,
80515000,
9052503c,
80525000,
90545000,
84295500,
9435553c,
80545000,
84355500,
9427553c,
904d503c,
804d5000,
904f5000,
84275500,
9433553c,
804f5000,
9051503c,
84335500,
9426553c,
80515000,
904d503c,
804d5000,
904f503c,
804f5000,
90515000,
84265500,
942d553c,
842d5500,
9432553c,
80515000,
904d503c,
804d5000,
90485000,
84325500,
9426553c,
80485000,
90435000,
9048503c,
84265500,
942b553c,
80485000,
80435000,
904d503c,
804d5000,
9048503c,
80485000,
904a5000,
842b5500,
9437553c,
804a5000,
904a5000,
84375500,
9429553c,
804a5000,
904f503c,
804f5000,
904d5000,
84295500,
9435553c,
804d5000,
9046503c,
80465000,
84355500,
9427553c,
904f503c,
804f5000,
904d503c,
804d5000,
90465000,
84275500,
942e553c,
80465000,
842e5500,
9433553c,
9046503c,
80465000,
904f5000,
84335500,
9427553c,
804f5000,
904e503c,
804e5000,
84275500,
9426553c,
904e503c,
804e5000,
9054503c,
80545000,
90515000,
84265500,
942d553c,
80515000,
842d5500,
9432553c,
9051503c,
80515000,
90575000,
84325500,
9426553c,
80575000,
9056503c,
80565000,
84265500,
904f5000,
90545000,
942b5578,
80545000,
804f5000,
9052503c,
80525000,
90545000,
842b5500,
9432553c,
84325500,
9437553c,
80545000,
9059503c,
80595000,
90575000,
84375500,
942b553c,
80575000,
90525000,
9057503c,
842b5500,
9429553c,
80575000,
80525000,
90505000,
9056501e,
84295500,
9435551e,
84355500,
9435553c,
84355500,
9435553c,
80565000,
80505000,
84355500,
942e553c,
904f503c,
804f5000,
90515000,
842e5500,
943a553c,
80515000,
9052503c,
80525000,
843a5500,
9427553c,
904f501e,
84275500,
9433551e,
804f5000,
90515000,
84335500,
9427553c,
80515000,
90525000,
84275500,
9433553c,
80525000,
84335500,
9427553c,
904f5000,
84275500,
9433553c,
804f5000,
90515000,
84335500,
9427553c,
80515000,
90525000,
84275500,
9433553c,
80525000,
84335500,
9429553c,
9051501e,
84295500,
9435551e,
80515000,
90525000,
84355500,
9429553c,
80525000,
90545000,
84295500,
9435553c,
80545000,
84355500,
9429553c,
904d5000,
84295500,
9435553c,
804d5000,
904f5000,
84355500,
9427553c,
804f5000,
90515000,
84275500,
9433553c,
84335500,
9426553c,
80515000,
904e501e,
84265500,
9432551e,
804e5000,
90515000,
84325500,
9426553c,
80515000,
90515000,
90575000,
84265500,
9432553c,
84325500,
942a553c,
80575000,
80515000,
90565000,
842a5500,
9436553c,
80565000,
90545000,
84365500,
942a553c,
80545000,
90525000,
842a5500,
9436553c,
80525000,
84365500,
90515000,
942b553c,
80515000,
9052503c,
8052503c,
904f5000,
842b5500,
942b553c,
842b5500,
9437553c,
804f5000,
904f5000,
84375500,
9429553c,
804f5000,
904d5000,
84295500,
9435553c,
804d5000,
90465000,
84355500,
9429553c,
80465000,
84295500,
9427553c,
904f501e,
84275500,
9433551e,
804f5000,
904d5000,
84335500,
9427503c,
804d5000,
90465000,
84275000,
9433503c,
80465000,
84335000,
9427503c,
90435000,
84275000,
9433503c,
80435000,
90435000,
84335000,
9427503c,
80435000,
90465000,
84275000,
9433503c,
80465000,
84335000,
90455000,
904b5000,
9429503c,
804b5000,
80455000,
904a501e,
84295000,
9435501e,
804a5000,
904b5000,
84355000,
9429503c,
804b5000,
904d5000,
84295000,
9435503c,
804d5000,
904a5000,
84355000,
9429503c,
804a5000,
9048503c,
80485000,
90465000,
84295078,
80465000,
904f5000,
94335000,
943a505a,
843a5000,
84335000,
94335000,
943a501e,
804f5000,
904d5000,
843a5000,
8433503c,
94335000,
943a503c,
804d5000,
904a5000,
843a5000,
8433503c,
804a5000,
904b5000,
94335000,
943a503c,
804b5000,
904d5000,
843a5000,
84335000,
94335000,
943a503c,
804d5000,
904a503c,
804a5000,
843a5000,
84335000,
ff2f0000;